<svg xmlns="http://www.w3.org/2000/svg" width="396" height="135.22" class="looka-1j8o68f" viewBox="0 0 410 140"><rect xmlns="http://www.w3.org/2000/svg" width="140" height="140" fill="#e12d32" rx="10" ry="10"/><g xmlns="http://www.w3.org/2000/svg" fill="#f8f8f8"><path d="m65.46 75.686-.32.144a82.617 82.617 0 0 0-8.028 4.506l-2.251-6.612-8.785 18.8L66.3 87.255l-5.295-2.998a86.991 86.991 0 0 1 3.745-2.183c4.992-2.704 10.604-5.096 16.772-6.716l-3.56-4.616c-4.476 1.329-8.635 3.04-12.503 4.943z"/><path d="M70.002 20C42.43 20 20 42.431 20 70.003 20 97.573 42.43 120 70.002 120 97.57 120 120 97.572 120 70.003 119.999 42.43 97.57 20 70.002 20zm25.493 79.77c.674-3.28.938-7.081.74-11.263a58.49 58.49 0 0 0-.262-3.233c-.435 1.072-1.338 1.897-2.49 2.162-.267.063-.539.091-.807.091-.71 0-1.39-.232-1.98-.62.051.619.123 1.242.155 1.857.385 8.064-1.138 13.575-3.11 16.197a38.895 38.895 0 0 1-9.762 3.443c-2.32-4.13-6.599-10.733-13-17.09l-5.922 1.54c6.31 5.687 10.664 11.93 13.224 16.297-.754.042-1.513.07-2.278.07-10.412 0-19.882-4.085-26.913-10.725a92.786 92.786 0 0 1 2.479-2.435 3.572 3.572 0 0 1-2.254-1.24c-.8-.961-1.002-2.252-.613-3.42a94.321 94.321 0 0 0-3.265 3.138 39.092 39.092 0 0 1-7.457-14.898c5.218.809 9.9 2.37 14.097 4.394l2.227-4.762A54.715 54.715 0 0 0 30.99 74.08a39.122 39.122 0 0 1 .799-12.89c.852.033 1.836.056 2.97.056 4.814 0 11.81-.387 19.77-2.315l.19-.048c.474-.116.932-.257 1.4-.381a86.61 86.61 0 0 0 1.873-.513c.599-.174 1.19-.358 1.779-.546.455-.143.644-.21 1.103-.364l.254-.091c1.192-.407 2.347-.863 3.503-1.32l.5 6.465 13.09-16.33-20.912.155 4.968 4.87a68.902 68.902 0 0 1-4.665 1.656c-.431.134-.86.252-1.288.375-.798.23-1.597.454-2.41.658-8.457 2.114-16.015 2.426-20.487 2.336A39.435 39.435 0 0 1 47.867 37.64c4.296-.322 10.39 1.138 16.677 4.816l9.187-.166c-3.537-2.892-7.337-5.303-11.318-7.059a39.907 39.907 0 0 0-5.89-2.069 39.035 39.035 0 0 1 13.48-2.386 38.975 38.975 0 0 1 15.735 3.307c-2.56 3.144-5.343 5.498-8.251 7.812l.79-.087c1.37 0 2.565.852 3.168 2.083.23.469.317 1.134.333 1.638 3.115-2.582 6.09-5.482 8.824-8.969 10.817 6.707 18.14 18.565 18.586 32.097a68.712 68.712 0 0 0-9.5-.87L98.566 73.2c3.378.03 6.853.306 10.436.93-1.073 10.223-6.098 19.284-13.508 25.64z"/><path d="M91.4 66.809c-1.045-2.61-2.05-4.83-3.384-7.23l-.197-.297a57.236 57.236 0 0 0-1.795-3.084c-1.676-2.648-3.566-5.11-5.593-7.408l-3.42 4.266a52.463 52.463 0 0 1 4.458 6.023 48.792 48.792 0 0 1 2.7 4.794l.15.281a62.912 62.912 0 0 1 1.772 3.918l-6.439-1.021 13.022 16.883 4.286-20.693-5.56 3.568z"/></g><path fill="#e12d32" d="M160 81.046v-50.98h13.007V68.43h24.444v12.615H160zm42.68-19.085c0 10.261 8.693 19.085 19.738 19.085 3.334 0 6.47-.72 9.347-2.157v2.157h10.392l-.065-37.778h-10.589v1.7c-2.81-1.373-5.882-2.027-9.085-2.027-11.045 0-19.738 8.824-19.738 19.02zm26.274 6.47c-1.764 1.7-3.921 2.68-6.536 2.68-5.163 0-9.15-4.314-9.15-9.15 0-4.771 3.987-9.085 9.15-9.085 2.615 0 4.772.915 6.536 2.614 1.111 1.111 2.55 3.464 2.55 4.837v3.333c0 1.373-1.439 3.595-2.55 4.771zm18.432-25.228v37.843h10.392l.13-19.739c.066-4.836 3.987-8.889 9.15-8.889h2.746l.065-9.934h-2.81c-3.203 0-6.34.653-9.15 2.091v-1.372h-10.523zm22.287 18.758c0 10.261 8.693 19.085 19.739 19.085 3.333 0 6.47-.72 9.346-2.157v2.157h10.392l-.065-37.778h-10.588v1.7c-2.81-1.373-5.883-2.027-9.085-2.027-11.046 0-19.739 8.824-19.739 19.02zm26.275 6.47c-1.765 1.7-3.922 2.68-6.536 2.68-5.164 0-9.15-4.314-9.15-9.15 0-4.771 3.986-9.085 9.15-9.085 2.614 0 4.771.915 6.536 2.614 1.11 1.111 2.549 3.464 2.549 4.837v3.333c0 1.373-1.438 3.595-2.55 4.771zm18.431-25.163 15.36 37.712h10.196l15.424-37.712H343.66l-8.823 23.399-8.759-23.399H314.38zm40.784 18.758c0-10.065 8.563-18.823 19.543-18.823 10.915 0 19.477 8.758 19.477 18.823 0 1.373-.13 2.68-.392 3.922l-27.255.065c1.438 2.941 4.444 5.033 8.17 5.033 2.549 0 4.837-1.046 6.405-2.615h11.896c-2.68 7.125-9.804 12.484-18.301 12.484-10.98 0-19.543-8.497-19.543-18.627v-.262zm11.7-4.51-.327.915h16.536l-.523-.915c-1.569-2.614-4.379-4.444-7.843-4.444s-6.34 1.83-7.843 4.444zm32.549 23.595H410L409.87 30h-10.393v.654zM167.194 108.558v2.198H160v-9.677h2.372v7.479h4.822zm13.19.08c1.724 0 2.61-1.108 2.61-2.72 0-1.708-.95-2.72-2.61-2.72-1.739 0-2.608 1.107-2.608 2.72 0 1.676.964 2.72 2.609 2.72zm0 2.197c-2.972 0-4.98-2.024-4.98-4.918 0-2.988 2.103-4.917 4.98-4.917 2.989 0 4.981 2.008 4.981 4.917 0 3.005-2.087 4.918-4.98 4.918zm21.618-2.783v2.435c-.98.269-1.96.38-2.972.38-2.973 0-4.965-2.04-4.965-4.934 0-2.972 2.071-4.933 4.949-4.933.996 0 2.04.08 2.988.38v2.434c-.774-.379-1.992-.521-2.846-.521-1.929 0-2.72.79-2.72 2.624 0 1.945.934 2.657 2.736 2.657.807 0 2.119-.127 2.83-.522zm14.93.743h-3.558l-.695 1.96H210.1l3.874-9.676h2.372l3.874 9.677h-2.593zm-2.783-2.198h2.008l-.996-2.814zm21.792 1.961v2.198h-7.195v-9.677h2.372v7.479h4.823zm8.747-7.479h2.372v9.677h-2.372v-9.677zm13.98 7.526h5.203v2.15h-8.064v-2.15l4.87-5.376h-4.554v-2.15h7.431v2.15zm13.966-7.526h7.194v2.198h-4.823v1.55h3.874v2.197h-3.874v1.534h4.823v2.198h-7.194v-9.677zm19.499 9.677h-3.4v-9.677h3.4c2.957 0 4.98 1.93 4.98 4.838 0 2.989-2.134 4.839-4.98 4.839zm-1.028-7.48v5.282h1.028c1.676 0 2.609-1.06 2.609-2.64 0-.364-.048-.696-.143-1.028-.41-1.155-1.312-1.613-2.466-1.613h-1.028zm28.452.033v2.308h2.213c.728 0 1.155-.427 1.155-1.154s-.427-1.154-1.155-1.154h-2.213zm3.589 3.873c.443.601.885 1.202 1.344 1.787.443.585.885 1.186 1.328 1.787h-2.893c-.57-.76-1.123-1.518-1.676-2.277-.554-.743-1.123-1.502-1.692-2.261v4.538h-2.372v-9.677h4.585c1.803 0 3.337 1.376 3.337 3.194 0 1.28-.791 2.403-1.961 2.91zm15.8 1.455c1.723 0 2.608-1.107 2.608-2.72 0-1.707-.949-2.72-2.609-2.72-1.74 0-2.609 1.108-2.609 2.72 0 1.677.965 2.72 2.61 2.72zm0 2.198c-2.974 0-4.982-2.024-4.982-4.918 0-2.988 2.103-4.917 4.981-4.917 2.988 0 4.98 2.008 4.98 4.917 0 3.005-2.086 4.918-4.98 4.918zm19.893-9.756h2.372v5.724c0 2.514-1.802 4.032-4.19 4.032-2.45 0-4.19-1.613-4.19-4.032v-5.724h2.372v5.724c0 1.138.68 1.834 1.818 1.834 1.17 0 1.818-.68 1.818-1.834v-5.724zm11.024 0h8.064v2.198h-2.846v7.479h-2.371v-7.48h-2.847v-2.197zm16.859 0h7.194v2.198h-4.822v1.55h3.874v2.197h-3.874v1.534h4.822v2.198h-7.194v-9.677zm15.625 9.44v-2.23c.19.048.427.095.696.127.269.047.553.079.854.095l.917.047c.317.016.616.032.885.032.743 0 1.265-.048 1.581-.127.3-.079.459-.221.459-.443 0-.19-.142-.332-.285-.442-.521-.348-1.138-.49-1.755-.633-1.74-.348-3.336-1.043-3.336-3.036 0-2.356 2.23-2.909 4.143-2.909 1.059 0 2.134.11 3.162.364v2.23c-.158-.048-.364-.08-.617-.127-.268-.032-.537-.064-.838-.095a17.509 17.509 0 0 0-1.818-.095c-.348 0-1.075 0-1.407.126-.222.08-.364.174-.364.427 0 .127.032.237.095.332.063.111.174.19.316.27.427.236.98.379 1.455.49.395.094.79.205 1.202.316 1.39.379 2.308 1.154 2.308 2.64 0 2.45-2.435 2.973-4.396 2.973-1.075 0-2.197-.08-3.257-.332z"/></svg>